<svg width="193" height="193" viewBox="0 0 193 193" fill="none" xmlns="http://www.w3.org/2000/svg">
<rect width="193" height="193" rx="96.5" fill="#2AABEE"/>
<path d="M49.2672 96.6626C76.7902 84.7466 95.1432 76.8909 104.326 73.0954C130.545 62.2584 135.993 60.3759 139.544 60.3131C140.325 60.3001 142.072 60.4924 143.203 61.4045C144.158 62.1747 144.421 63.2151 144.547 63.9453C144.672 64.6755 144.829 66.3389 144.704 67.6386C143.284 82.4736 137.136 118.474 134.008 135.09C132.685 142.12 130.079 144.477 127.556 144.708C122.073 145.21 117.91 141.108 112.6 137.649C104.29 132.236 99.5958 128.866 91.5301 123.584C82.2087 117.48 88.2513 114.125 93.5636 108.643C94.9538 107.208 119.111 85.3733 119.578 83.3926C119.637 83.1449 119.691 82.2215 119.139 81.7339C118.587 81.2463 117.772 81.413 117.184 81.5456C116.351 81.7336 103.076 90.4524 77.3606 107.702C73.5927 110.273 70.1799 111.526 67.122 111.46C63.7511 111.388 57.2666 109.566 52.4461 108.009C46.5336 106.099 41.8344 105.09 42.2436 101.846C42.4567 100.157 44.7979 98.4288 49.2672 96.6626Z" fill="white"/>
</svg>
