<svg width="56" height="56" viewBox="0 0 56 56" fill="#242424" xmlns="http://www.w3.org/2000/svg">
<path fill-rule="evenodd" clip-rule="evenodd" d="M2.69649 7.11088C0 11.1465 0 16.7643 0 28C0 39.2357 0 44.8535 2.69649 48.8891C3.86382 50.6362 5.36383 52.1362 7.11088 53.3035C11.1465 56 16.7643 56 28 56C39.2357 56 44.8535 56 48.8891 53.3035C50.6362 52.1362 52.1362 50.6362 53.3035 48.8891C56 44.8535 56 39.2357 56 28C56 16.7643 56 11.1465 53.3035 7.11088C52.1362 5.36383 50.6362 3.86382 48.8891 2.69649C44.8535 0 39.2357 0 28 0C16.7643 0 11.1465 0 7.11088 2.69649C5.36383 3.86382 3.86382 5.36383 2.69649 7.11088ZM28.8741 20.219C26.1574 21.3728 20.7278 23.7607 12.5853 27.3828C11.263 27.9197 10.5704 28.4449 10.5073 28.9584C10.4008 29.8263 11.4653 30.1681 12.9148 30.6335C13.112 30.6968 13.3163 30.7624 13.5257 30.8319C14.9518 31.3052 16.8702 31.8589 17.8675 31.8809C18.7721 31.9009 19.7818 31.5201 20.8965 30.7385C28.5044 25.4951 32.4315 22.8448 32.6781 22.7877C32.852 22.7474 33.0931 22.6967 33.2564 22.8449C33.4197 22.9931 33.4037 23.2738 33.3864 23.3491C33.2809 23.8081 29.1025 27.7744 26.9401 29.827C26.266 30.4669 25.7878 30.9208 25.6901 31.0244C25.4711 31.2566 25.248 31.4763 25.0335 31.6874C23.7086 32.9915 22.715 33.9694 25.0885 35.5663C26.2291 36.3338 27.1418 36.9684 28.0523 37.6015C29.0467 38.2929 30.0385 38.9825 31.3218 39.8414C31.6488 40.0602 31.961 40.2875 32.2651 40.5089C33.4224 41.3512 34.4621 42.108 35.7465 41.9873C36.4929 41.9172 37.2638 41.2007 37.6554 39.0636C38.5807 34.0129 40.3995 23.0697 40.8198 18.5603C40.8567 18.1652 40.8103 17.6596 40.7731 17.4377C40.7359 17.2157 40.6582 16.8995 40.3756 16.6653C40.041 16.3881 39.5243 16.3296 39.2933 16.3336C38.2427 16.3527 36.6309 16.9249 28.8741 20.219Z" />
</svg>
