<svg width="56" height="56" viewBox="0 0 56 56" fill="none" xmlns="http://www.w3.org/2000/svg">
<path fill-rule="evenodd" clip-rule="evenodd" d="M2.69649 7.11088C0 11.1465 0 16.7643 0 28C0 39.2357 0 44.8535 2.69649 48.8891C3.86382 50.6362 5.36383 52.1362 7.11088 53.3035C11.1465 56 16.7643 56 28 56C39.2357 56 44.8535 56 48.8891 53.3035C50.6362 52.1362 52.1362 50.6362 53.3035 48.8891C56 44.8535 56 39.2357 56 28C56 16.7643 56 11.1465 53.3035 7.11088C52.1362 5.36383 50.6362 3.86382 48.8891 2.69649C44.8535 0 39.2357 0 28 0C16.7643 0 11.1465 0 7.11088 2.69649C5.36383 3.86382 3.86382 5.36383 2.69649 7.11088ZM41.8883 14H37.0581L29.0988 22.9471L22.217 14H12.25L24.1591 29.3138L12.872 42H17.7052L26.4165 32.2115L34.0297 42H43.75L31.3357 25.8605L41.8883 14ZM38.0393 39.1569H35.3629L17.8906 16.6937H20.7627L38.0393 39.1569Z" fill="#242424"/>
</svg>
