<svg width="56" height="56" viewBox="0 0 56 56" fill="none" xmlns="http://www.w3.org/2000/svg">
<path fill-rule="evenodd" clip-rule="evenodd" d="M3.34281 5.56019C0 9.68822 0 15.7921 0 28C0 40.2079 0 46.3118 3.34281 50.4398C4.00244 51.2544 4.74562 51.9976 5.56019 52.6572C9.68822 56 15.7921 56 28 56C40.2079 56 46.3118 56 50.4398 52.6572C51.2544 51.9976 51.9976 51.2544 52.6572 50.4398C56 46.3118 56 40.2079 56 28C56 15.7921 56 9.68822 52.6572 5.56019C51.9976 4.74562 51.2544 4.00244 50.4398 3.34281C46.3118 0 40.2079 0 28 0C15.7921 0 9.68822 0 5.56019 3.34281C4.74562 4.00244 4.00244 4.74562 3.34281 5.56019ZM41.8883 14H37.0581L29.0988 22.9471L22.217 14H12.25L24.1591 29.3138L12.872 42H17.7052L26.4165 32.2115L34.0297 42H43.75L31.3357 25.8605L41.8883 14ZM38.0393 39.1569H35.3629L17.8906 16.6937H20.7627L38.0393 39.1569Z" fill="url(#paint0_linear_1_1466)"/>
<defs>
<linearGradient id="paint0_linear_1_1466" x1="0" y1="28" x2="67.5" y2="-9.5" gradientUnits="userSpaceOnUse">
<stop stop-color="#0899F8"/>
<stop offset="1" stop-color="#10DD99"/>
</linearGradient>
</defs>
</svg>
