<svg width="112" height="56" viewBox="0 0 112 56" fill="none" xmlns="http://www.w3.org/2000/svg">
<rect width="112" height="56" rx="16" fill="#242424"/>
<rect x="60" y="4" width="48" height="48" rx="16" fill="white"/>
<path d="M26.412 33.032C26.412 33.576 26.276 34.048 26.004 34.448C25.748 34.832 25.388 35.16 24.924 35.432C24.652 35.576 24.244 35.784 23.7 36.056C23.156 36.328 22.54 36.624 21.852 36.944C21.164 37.264 20.444 37.592 19.692 37.928C18.94 38.264 18.22 38.56 17.532 38.816C16.86 39.088 16.26 39.312 15.732 39.488C15.204 39.664 14.82 39.752 14.58 39.752C14.084 39.752 13.668 39.608 13.332 39.32C12.996 39.048 12.716 38.688 12.492 38.24C12.284 37.808 12.124 37.312 12.012 36.752C11.9 36.192 11.812 35.64 11.748 35.096C11.7 34.536 11.668 34.008 11.652 33.512C11.652 33.016 11.652 32.6 11.652 32.264C11.652 30.904 11.668 29.552 11.7 28.208C11.748 26.864 11.788 25.512 11.82 24.152C11.5 23.912 11.26 23.6 11.1 23.216C10.94 22.832 10.86 22.448 10.86 22.064C10.86 20.896 11.404 20.128 12.492 19.76C13.068 19.568 13.796 19.392 14.676 19.232C15.556 19.072 16.476 18.936 17.436 18.824C18.396 18.712 19.324 18.624 20.22 18.56C21.132 18.496 21.9 18.464 22.524 18.464C22.828 18.464 23.116 18.496 23.388 18.56C23.676 18.608 23.924 18.704 24.132 18.848C24.34 18.992 24.5 19.184 24.612 19.424C24.74 19.664 24.804 19.96 24.804 20.312C24.804 20.936 24.604 21.448 24.204 21.848C23.82 22.232 23.332 22.488 22.74 22.616C22.42 22.68 22.092 22.736 21.756 22.784C21.436 22.816 21.116 22.864 20.796 22.928C20.012 23.072 19.228 23.24 18.444 23.432C17.676 23.624 16.908 23.824 16.14 24.032C16.06 24.432 16.012 24.832 15.996 25.232C15.98 25.632 15.972 26.04 15.972 26.456C16.388 26.344 16.884 26.216 17.46 26.072C18.052 25.912 18.652 25.776 19.26 25.664C19.884 25.536 20.484 25.432 21.06 25.352C21.652 25.256 22.156 25.208 22.572 25.208C23.18 25.208 23.676 25.392 24.06 25.76C24.444 26.128 24.636 26.624 24.636 27.248C24.636 27.824 24.476 28.296 24.156 28.664C23.852 29.032 23.436 29.304 22.908 29.48C22.316 29.688 21.716 29.88 21.108 30.056C20.5 30.216 19.892 30.384 19.284 30.56C18.692 30.736 18.1 30.928 17.508 31.136C16.932 31.328 16.356 31.568 15.78 31.856V32.72C15.78 32.992 15.788 33.264 15.804 33.536C15.836 33.792 15.9 34.048 15.996 34.304C16.204 34.224 16.548 34.088 17.028 33.896C17.524 33.704 18.076 33.488 18.684 33.248C19.308 33.008 19.956 32.768 20.628 32.528C21.3 32.272 21.916 32.04 22.476 31.832C23.052 31.608 23.548 31.432 23.964 31.304C24.38 31.16 24.636 31.088 24.732 31.088C25.276 31.088 25.692 31.288 25.98 31.688C26.268 32.088 26.412 32.536 26.412 33.032ZM43.4022 33.464C43.4022 33.848 43.3782 34.368 43.3302 35.024C43.2822 35.68 43.1702 36.328 42.9942 36.968C42.8342 37.592 42.5942 38.136 42.2742 38.6C41.9542 39.064 41.5222 39.296 40.9782 39.296C40.4982 39.296 39.9862 39.136 39.4422 38.816C38.8982 38.496 38.3462 38.088 37.7862 37.592C37.2262 37.08 36.6662 36.504 36.1062 35.864C35.5622 35.224 35.0502 34.592 34.5702 33.968C34.0902 33.328 33.6582 32.728 33.2742 32.168C32.8902 31.592 32.5782 31.12 32.3382 30.752C32.4182 31.664 32.4902 32.568 32.5542 33.464C32.6182 34.344 32.6982 35.24 32.7942 36.152C32.8102 36.232 32.8182 36.352 32.8182 36.512C32.8182 37.152 32.6102 37.696 32.1942 38.144C31.7782 38.608 31.2422 38.84 30.5862 38.84C29.8822 38.84 29.3542 38.624 29.0022 38.192C28.6662 37.76 28.4342 37.24 28.3062 36.632C28.1142 35.752 27.9702 34.864 27.8742 33.968C27.7782 33.056 27.7142 32.144 27.6822 31.232C27.6502 30.32 27.6262 29.408 27.6102 28.496C27.5942 27.568 27.5782 26.656 27.5622 25.76C27.5462 25.248 27.5302 24.736 27.5142 24.224C27.5142 23.712 27.5142 23.2 27.5142 22.688C27.5142 22.384 27.5542 22.072 27.6342 21.752C27.7302 21.416 27.8662 21.12 28.0422 20.864C28.2182 20.608 28.4342 20.4 28.6902 20.24C28.9622 20.064 29.2822 19.976 29.6502 19.976C30.0982 19.976 30.4742 20.104 30.7782 20.36C31.0822 20.6 31.3622 20.88 31.6182 21.2C32.0342 21.744 32.4182 22.312 32.7702 22.904C33.1382 23.48 33.4982 24.064 33.8502 24.656C34.2022 25.232 34.5542 25.816 34.9062 26.408C35.2582 27 35.6342 27.576 36.0342 28.136C36.4822 28.76 36.9302 29.392 37.3782 30.032C37.8262 30.672 38.3142 31.272 38.8422 31.832V31.568C38.8422 29.792 38.7302 28.032 38.5062 26.288C38.2982 24.544 38.0582 22.8 37.7862 21.056C37.7702 20.976 37.7542 20.896 37.7382 20.816C37.7382 20.72 37.7382 20.632 37.7382 20.552C37.7382 20.28 37.7782 20.016 37.8582 19.76C37.9542 19.504 38.0822 19.28 38.2422 19.088C38.4182 18.896 38.6262 18.744 38.8662 18.632C39.1062 18.504 39.3702 18.44 39.6582 18.44C40.4262 18.44 41.0022 18.64 41.3862 19.04C41.7702 19.424 42.0582 19.96 42.2502 20.648C42.5382 21.688 42.7542 22.736 42.8982 23.792C43.0582 24.848 43.1702 25.92 43.2342 27.008C43.3142 28.08 43.3622 29.16 43.3782 30.248C43.3942 31.32 43.4022 32.392 43.4022 33.464Z" fill="white"/>
<path d="M84.3845 33.92C84.3845 34.256 84.3205 34.544 84.1925 34.784C84.0645 35.008 83.8965 35.192 83.6885 35.336C83.4805 35.464 83.2405 35.56 82.9685 35.624C82.6965 35.688 82.4165 35.72 82.1285 35.72C81.4085 35.72 80.6965 35.648 79.9925 35.504C79.3045 35.344 78.6005 35.192 77.8805 35.048C76.9685 34.856 76.0565 34.68 75.1445 34.52C74.2325 34.36 73.3125 34.24 72.3845 34.16C72.4165 34.512 72.4405 34.864 72.4565 35.216C72.4725 35.552 72.4805 35.896 72.4805 36.248C72.4805 36.584 72.4085 36.92 72.2645 37.256C72.1365 37.592 71.9605 37.888 71.7365 38.144C71.5125 38.416 71.2405 38.632 70.9205 38.792C70.6165 38.952 70.2885 39.032 69.9365 39.032C69.4565 39.032 69.1045 38.88 68.8805 38.576C68.6565 38.288 68.4805 37.936 68.3525 37.52C68.1765 36.896 68.0405 36.264 67.9445 35.624C67.8645 34.984 67.7845 34.336 67.7045 33.68C67.4805 31.888 67.3125 30.104 67.2005 28.328C67.1045 26.536 67.0565 24.744 67.0565 22.952C67.0565 22.216 67.0965 21.6 67.1765 21.104C67.2565 20.608 67.4165 20.208 67.6565 19.904C67.9125 19.6 68.2725 19.392 68.7365 19.28C69.2165 19.152 69.8565 19.088 70.6565 19.088C70.9925 19.088 71.3205 19.08 71.6405 19.064C71.9765 19.032 72.3125 19.016 72.6485 19.016C73.1445 19.016 73.6885 19.04 74.2805 19.088C74.8885 19.12 75.5045 19.2 76.1285 19.328C76.7525 19.44 77.3525 19.6 77.9285 19.808C78.5205 20 79.0405 20.264 79.4885 20.6C79.9525 20.936 80.3205 21.344 80.5925 21.824C80.8805 22.304 81.0245 22.872 81.0245 23.528C81.0245 24.232 80.8965 24.888 80.6405 25.496C80.3845 26.088 80.0485 26.64 79.6325 27.152C79.2325 27.648 78.7685 28.112 78.2405 28.544C77.7285 28.96 77.2085 29.352 76.6805 29.72C77.0645 29.832 77.5205 29.936 78.0485 30.032C78.5925 30.128 79.1445 30.24 79.7045 30.368C80.2805 30.496 80.8485 30.648 81.4085 30.824C81.9685 31 82.4645 31.224 82.8965 31.496C83.3445 31.768 83.7045 32.104 83.9765 32.504C84.2485 32.888 84.3845 33.36 84.3845 33.92ZM76.2965 23.96C75.8325 23.768 75.3445 23.656 74.8325 23.624C74.3365 23.576 73.8325 23.552 73.3205 23.552C73.0325 23.552 72.7445 23.552 72.4565 23.552C72.1685 23.552 71.8805 23.568 71.5925 23.6C71.5445 23.968 71.5205 24.328 71.5205 24.68C71.5205 25.72 71.5445 26.752 71.5925 27.776C71.9285 27.584 72.3285 27.344 72.7925 27.056C73.2565 26.752 73.7125 26.432 74.1605 26.096C74.6245 25.744 75.0485 25.384 75.4325 25.016C75.8165 24.648 76.1045 24.296 76.2965 23.96ZM96.5212 25.712C96.5212 26.784 96.4812 27.856 96.4012 28.928C96.3372 30 96.2012 31.064 95.9932 32.12C95.8492 32.84 95.6172 33.608 95.2972 34.424C94.9932 35.224 94.6012 35.968 94.1212 36.656C93.6412 37.328 93.0652 37.88 92.3932 38.312C91.7212 38.76 90.9532 38.984 90.0892 38.984C89.1772 38.984 88.3532 38.816 87.6172 38.48C86.8972 38.144 86.2572 37.688 85.6972 37.112C85.1532 36.536 84.6812 35.872 84.2812 35.12C83.8972 34.368 83.5772 33.584 83.3212 32.768C83.0652 31.952 82.8812 31.128 82.7692 30.296C82.6572 29.448 82.6012 28.648 82.6012 27.896C82.6012 26.984 82.6172 26.064 82.6492 25.136C82.6972 24.208 82.8572 23.304 83.1292 22.424C83.3052 21.816 83.5852 21.352 83.9692 21.032C84.3532 20.712 84.8732 20.552 85.5292 20.552C85.8492 20.552 86.1612 20.608 86.4652 20.72C86.7852 20.816 87.0652 20.96 87.3052 21.152C87.5452 21.344 87.7372 21.584 87.8812 21.872C88.0412 22.144 88.1212 22.456 88.1212 22.808C88.1212 22.888 88.1212 22.96 88.1212 23.024C88.1212 23.072 88.1132 23.136 88.0972 23.216C87.9532 24.144 87.8012 25.064 87.6412 25.976C87.4972 26.872 87.4252 27.792 87.4252 28.736C87.4252 29.04 87.4332 29.488 87.4492 30.08C87.4812 30.672 87.5532 31.264 87.6652 31.856C87.7772 32.432 87.9532 32.944 88.1932 33.392C88.4332 33.824 88.7772 34.04 89.2252 34.04C89.7052 34.04 90.1132 33.92 90.4492 33.68C90.7852 33.44 91.0572 33.128 91.2652 32.744C91.4892 32.36 91.6572 31.928 91.7692 31.448C91.8812 30.952 91.9612 30.456 92.0092 29.96C92.0572 29.464 92.0812 28.984 92.0812 28.52C92.0972 28.056 92.1052 27.656 92.1052 27.32C92.1052 26.328 92.0732 25.352 92.0092 24.392C91.9612 23.416 91.8492 22.44 91.6732 21.464C91.6252 21.224 91.6012 20.992 91.6012 20.768C91.6012 20.448 91.6492 20.128 91.7452 19.808C91.8572 19.472 92.0092 19.168 92.2012 18.896C92.4092 18.624 92.6492 18.408 92.9212 18.248C93.2092 18.072 93.5292 17.984 93.8812 17.984C94.2652 17.984 94.5932 18.136 94.8652 18.44C95.1532 18.744 95.3932 19.136 95.5852 19.616C95.7772 20.096 95.9292 20.64 96.0412 21.248C96.1692 21.84 96.2652 22.424 96.3292 23C96.4092 23.56 96.4572 24.088 96.4732 24.584C96.5052 25.064 96.5212 25.44 96.5212 25.712Z" fill="#020202"/>
</svg>
